<?xml version="1.0" encoding="UTF-8" standalone="no"?>
<!-- Created with Inkscape (http://www.inkscape.org/) -->

<svg
   xmlns:dc="http://purl.org/dc/elements/1.1/"
   xmlns:cc="http://creativecommons.org/ns#"
   xmlns:rdf="http://www.w3.org/1999/02/22-rdf-syntax-ns#"
   xmlns:svg="http://www.w3.org/2000/svg"
   xmlns="http://www.w3.org/2000/svg"
   xmlns:sodipodi="http://sodipodi.sourceforge.net/DTD/sodipodi-0.dtd"
   xmlns:inkscape="http://www.inkscape.org/namespaces/inkscape"
   width="210mm"
   height="297mm"
   viewBox="0 0 210 297"
   version="1.1"
   id="svg8"
   inkscape:version="0.92.4 (5da689c313, 2019-01-14)"
   sodipodi:docname="phi-logo.svg">
  <defs
     id="defs2" />
  <sodipodi:namedview
     id="base"
     pagecolor="#ffffff"
     bordercolor="#666666"
     borderopacity="1.0"
     inkscape:pageopacity="0.0"
     inkscape:pageshadow="2"
     inkscape:zoom="0.49497475"
     inkscape:cx="-171.73305"
     inkscape:cy="543.89528"
     inkscape:document-units="mm"
     inkscape:current-layer="layer1"
     showgrid="false"
     inkscape:window-width="2048"
     inkscape:window-height="1089"
     inkscape:window-x="-8"
     inkscape:window-y="-8"
     inkscape:window-maximized="1" />
  <metadata
     id="metadata5">
    <rdf:RDF>
      <cc:Work
         rdf:about="">
        <dc:format>image/svg+xml</dc:format>
        <dc:type
           rdf:resource="http://purl.org/dc/dcmitype/StillImage" />
        <dc:title />
      </cc:Work>
    </rdf:RDF>
  </metadata>
  <g
     inkscape:label="Layer 1"
     inkscape:groupmode="layer"
     id="layer1">
    <rect
       style="fill:#98f6ff;fill-opacity:1;stroke:none;stroke-width:0.52612966;stroke-miterlimit:4;stroke-dasharray:none"
       id="rect844"
       width="164.91824"
       height="31.06706"
       x="35.37389"
       y="22.322504"
       transform="matrix(0.99357845,0.1131453,-0.13818544,0.99040637,0,0)" />
    <rect
       style="fill:#98f6ff;fill-opacity:1;stroke:none;stroke-width:0.63429105;stroke-miterlimit:4;stroke-dasharray:none"
       id="rect846"
       width="211.94119"
       height="48.113171"
       x="9.9440126"
       y="137.60568"
       transform="matrix(0.98065616,0.19573831,-0.1143024,0.993446,0,0)" />
    <rect
       style="fill:#98f6ff;fill-opacity:1;stroke:none;stroke-width:0.62298477;stroke-miterlimit:4;stroke-dasharray:none"
       id="rect848"
       width="194.78523"
       height="37.233631"
       x="-6.8528986"
       y="77.890053"
       transform="matrix(0.98573336,-0.16831439,0.13561335,0.99076184,0,0)" />
    <rect
       style="fill:#98f6ff;fill-opacity:1;stroke:none;stroke-width:0.72869623;stroke-miterlimit:4;stroke-dasharray:none"
       id="rect850"
       width="207.5582"
       height="42.84193"
       x="6.3925972"
       y="77.753471"
       transform="matrix(0.99539987,0.09580759,-0.03286528,0.99945979,0,0)" />
    <rect
       style="fill:#98f6ff;fill-opacity:1;stroke:none;stroke-width:0.67759019;stroke-miterlimit:4;stroke-dasharray:none"
       id="rect852"
       width="219.31329"
       height="46.108501"
       x="-27.879185"
       y="135.2565"
       transform="matrix(0.98285191,-0.18439667,0.16020882,0.98708314,0,0)" />
    <rect
       style="fill:#98f6ff;fill-opacity:1;stroke:none;stroke-width:0.61223543;stroke-miterlimit:4;stroke-dasharray:none"
       id="rect854"
       width="181.82767"
       height="45.961853"
       x="8.0269623"
       y="216.86043"
       transform="matrix(0.98169347,-0.19046767,0.07207496,0.99739922,0,0)" />
    <path
       style="display:inline;opacity:1;vector-effect:none;fill:#000000;fill-opacity:1;stroke:#000000;stroke-width:1.03759456;stroke-linecap:butt;stroke-linejoin:miter;stroke-miterlimit:4;stroke-dasharray:none;stroke-dashoffset:0;stroke-opacity:1"
       d="m 117.79773,197.07997 c 0,0 -4.0284,-5.13269 -4.0284,-13.40225 -1e-5,-19.88639 -1e-5,-65.66389 -1e-5,-94.075943 0,-12.284435 2.82074,-21.997709 11.91518,-26.502963 9.5536,-4.73272 24.99097,-1.915341 31.86472,5.855101 14.30262,16.168435 10.84676,44.433175 0.009,62.778785 -7.16916,12.13501 -23.23369,19.02713 -37.71334,22.30059 -12.06146,2.72678 -25.83227,1.76592 -37.091978,-3.08866 -8.568278,-3.69418 -15.847483,-10.69693 -20.15165,-18.5074 -6.848244,-12.42703 -9.362175,-27.5962 -6.967181,-41.378227 1.630874,-9.384886 6.076682,-19.396286 14.047558,-25.359135 4.090441,-3.059974 10.007264,-4.326067 15.224969,-3.768634 4.825777,0.515561 12.861678,6.364005 12.861678,6.364005 C 93.884103,59.561594 83.199383,53.434323 73.796401,53.955747 62.681318,54.828732 51.539524,62.058512 44.971701,70.619124 35.83752,82.524771 32.281787,98.90256 34.473316,113.37956 c 1.877603,12.40324 9.232214,24.81597 19.52242,32.91078 10.553581,8.302 25.425918,11.12293 39.13934,12.78634 12.007594,1.4565 24.651264,0.68766 36.216784,-2.64583 10.42342,-3.0043 21.30566,-7.46238 28.35993,-15.19733 9.95384,-10.9143 15.98668,-25.88694 16.19291,-40.18962 0.20685,-14.345531 -3.1221,-31.611061 -15.07334,-40.699592 -9.67843,-7.360125 -25.8191,-9.438836 -37.19568,-4.609388 -14.37118,6.100674 -25.62014,16.482923 -26.009652,36.810085 0,24.910665 -0.984357,71.148135 -1.222491,91.139615 -0.09784,8.21356 -4.770743,13.39536 -4.770743,13.39536 z"
       inkscape:connector-curvature="0"
       id="path838"
       sodipodi:nodetypes="cssaaaaaaaaaccaaaaaaaaacscc" />
    <path
       style="opacity:1;vector-effect:none;fill:#000000;fill-opacity:1;stroke:#000000;stroke-width:1.03759456;stroke-linecap:butt;stroke-linejoin:miter;stroke-miterlimit:4;stroke-dasharray:none;stroke-dashoffset:0;stroke-opacity:1"
       d="m 23.062757,205.86109 c 0,0 91.976833,28.93492 155.381233,-1.06908 l 5.2492,13.62287 C 103.09528,243.43483 23.062757,205.86109 23.062757,205.86109 Z"
       id="path840"
       inkscape:connector-curvature="0"
       sodipodi:nodetypes="cccc" />
  </g>
</svg>
